G75*
%MOIN*%
%OFA0B0*%
%FSLAX25Y25*%
%IPPOS*%
%LPD*%
%AMOC8*
5,1,8,0,0,1.08239X$1,22.5*
%
%ADD10OC8,0.06300*%
%ADD11C,0.04400*%
%ADD12C,0.06000*%
%ADD13R,0.06600X0.06600*%
%ADD14C,0.06600*%
%ADD15C,0.01600*%
D10*
X0061800Y0191800D03*
X0061800Y0201800D03*
X0081800Y0201800D03*
X0081800Y0191800D03*
X0181800Y0191800D03*
X0181800Y0201800D03*
X0201800Y0201800D03*
X0201800Y0191800D03*
X0301800Y0191800D03*
X0301800Y0201800D03*
X0321800Y0201800D03*
X0321800Y0191800D03*
X0421800Y0191800D03*
X0421800Y0201800D03*
X0441800Y0201800D03*
X0441800Y0191800D03*
X0541800Y0191800D03*
X0541800Y0201800D03*
X0561800Y0201800D03*
X0561800Y0191800D03*
X0561800Y0411800D03*
X0561800Y0421800D03*
X0541800Y0421800D03*
X0541800Y0411800D03*
X0441800Y0411800D03*
X0441800Y0421800D03*
X0421800Y0421800D03*
X0421800Y0411800D03*
X0321800Y0411800D03*
X0321800Y0421800D03*
X0301800Y0421800D03*
X0301800Y0411800D03*
X0201800Y0411800D03*
X0201800Y0421800D03*
X0181800Y0421800D03*
X0181800Y0411800D03*
X0081800Y0411800D03*
X0081800Y0421800D03*
X0061800Y0421800D03*
X0061800Y0411800D03*
D11*
X0061800Y0394000D02*
X0061800Y0389600D01*
X0081800Y0389600D02*
X0081800Y0394000D01*
X0181800Y0394000D02*
X0181800Y0389600D01*
X0201800Y0389600D02*
X0201800Y0394000D01*
X0301800Y0394000D02*
X0301800Y0389600D01*
X0321800Y0389600D02*
X0321800Y0394000D01*
X0421800Y0394000D02*
X0421800Y0389600D01*
X0441800Y0389600D02*
X0441800Y0394000D01*
X0541800Y0394000D02*
X0541800Y0389600D01*
X0561800Y0389600D02*
X0561800Y0394000D01*
X0561800Y0174000D02*
X0561800Y0169600D01*
X0541800Y0169600D02*
X0541800Y0174000D01*
X0441800Y0174000D02*
X0441800Y0169600D01*
X0421800Y0169600D02*
X0421800Y0174000D01*
X0321800Y0174000D02*
X0321800Y0169600D01*
X0301800Y0169600D02*
X0301800Y0174000D01*
X0201800Y0174000D02*
X0201800Y0169600D01*
X0181800Y0169600D02*
X0181800Y0174000D01*
X0081800Y0174000D02*
X0081800Y0169600D01*
X0061800Y0169600D02*
X0061800Y0174000D01*
D12*
X0056800Y0049800D02*
X0056800Y0043800D01*
X0066800Y0043800D02*
X0066800Y0049800D01*
X0076800Y0049800D02*
X0076800Y0043800D01*
X0086800Y0043800D02*
X0086800Y0049800D01*
X0103800Y0081800D02*
X0109800Y0081800D01*
X0109800Y0091800D02*
X0103800Y0091800D01*
X0103800Y0101800D02*
X0109800Y0101800D01*
X0109800Y0111800D02*
X0103800Y0111800D01*
X0103800Y0121800D02*
X0109800Y0121800D01*
X0109800Y0131800D02*
X0103800Y0131800D01*
X0103800Y0141800D02*
X0109800Y0141800D01*
X0109800Y0151800D02*
X0103800Y0151800D01*
X0103800Y0161800D02*
X0109800Y0161800D01*
X0153800Y0161800D02*
X0159800Y0161800D01*
X0159800Y0151800D02*
X0153800Y0151800D01*
X0153800Y0141800D02*
X0159800Y0141800D01*
X0159800Y0131800D02*
X0153800Y0131800D01*
X0153800Y0121800D02*
X0159800Y0121800D01*
X0159800Y0111800D02*
X0153800Y0111800D01*
X0153800Y0101800D02*
X0159800Y0101800D01*
X0159800Y0091800D02*
X0153800Y0091800D01*
X0153800Y0081800D02*
X0159800Y0081800D01*
X0176800Y0049800D02*
X0176800Y0043800D01*
X0186800Y0043800D02*
X0186800Y0049800D01*
X0196800Y0049800D02*
X0196800Y0043800D01*
X0206800Y0043800D02*
X0206800Y0049800D01*
X0223800Y0081800D02*
X0229800Y0081800D01*
X0229800Y0091800D02*
X0223800Y0091800D01*
X0223800Y0101800D02*
X0229800Y0101800D01*
X0229800Y0111800D02*
X0223800Y0111800D01*
X0223800Y0121800D02*
X0229800Y0121800D01*
X0229800Y0131800D02*
X0223800Y0131800D01*
X0223800Y0141800D02*
X0229800Y0141800D01*
X0229800Y0151800D02*
X0223800Y0151800D01*
X0223800Y0161800D02*
X0229800Y0161800D01*
X0273800Y0161800D02*
X0279800Y0161800D01*
X0279800Y0151800D02*
X0273800Y0151800D01*
X0273800Y0141800D02*
X0279800Y0141800D01*
X0279800Y0131800D02*
X0273800Y0131800D01*
X0273800Y0121800D02*
X0279800Y0121800D01*
X0279800Y0111800D02*
X0273800Y0111800D01*
X0273800Y0101800D02*
X0279800Y0101800D01*
X0279800Y0091800D02*
X0273800Y0091800D01*
X0273800Y0081800D02*
X0279800Y0081800D01*
X0296800Y0049800D02*
X0296800Y0043800D01*
X0306800Y0043800D02*
X0306800Y0049800D01*
X0316800Y0049800D02*
X0316800Y0043800D01*
X0326800Y0043800D02*
X0326800Y0049800D01*
X0343800Y0081800D02*
X0349800Y0081800D01*
X0349800Y0091800D02*
X0343800Y0091800D01*
X0343800Y0101800D02*
X0349800Y0101800D01*
X0349800Y0111800D02*
X0343800Y0111800D01*
X0343800Y0121800D02*
X0349800Y0121800D01*
X0349800Y0131800D02*
X0343800Y0131800D01*
X0343800Y0141800D02*
X0349800Y0141800D01*
X0349800Y0151800D02*
X0343800Y0151800D01*
X0343800Y0161800D02*
X0349800Y0161800D01*
X0393800Y0161800D02*
X0399800Y0161800D01*
X0399800Y0151800D02*
X0393800Y0151800D01*
X0393800Y0141800D02*
X0399800Y0141800D01*
X0399800Y0131800D02*
X0393800Y0131800D01*
X0393800Y0121800D02*
X0399800Y0121800D01*
X0399800Y0111800D02*
X0393800Y0111800D01*
X0393800Y0101800D02*
X0399800Y0101800D01*
X0399800Y0091800D02*
X0393800Y0091800D01*
X0393800Y0081800D02*
X0399800Y0081800D01*
X0416800Y0049800D02*
X0416800Y0043800D01*
X0426800Y0043800D02*
X0426800Y0049800D01*
X0436800Y0049800D02*
X0436800Y0043800D01*
X0446800Y0043800D02*
X0446800Y0049800D01*
X0463800Y0081800D02*
X0469800Y0081800D01*
X0469800Y0091800D02*
X0463800Y0091800D01*
X0463800Y0101800D02*
X0469800Y0101800D01*
X0469800Y0111800D02*
X0463800Y0111800D01*
X0463800Y0121800D02*
X0469800Y0121800D01*
X0469800Y0131800D02*
X0463800Y0131800D01*
X0463800Y0141800D02*
X0469800Y0141800D01*
X0469800Y0151800D02*
X0463800Y0151800D01*
X0463800Y0161800D02*
X0469800Y0161800D01*
X0513800Y0161800D02*
X0519800Y0161800D01*
X0519800Y0151800D02*
X0513800Y0151800D01*
X0513800Y0141800D02*
X0519800Y0141800D01*
X0519800Y0131800D02*
X0513800Y0131800D01*
X0513800Y0121800D02*
X0519800Y0121800D01*
X0519800Y0111800D02*
X0513800Y0111800D01*
X0513800Y0101800D02*
X0519800Y0101800D01*
X0519800Y0091800D02*
X0513800Y0091800D01*
X0513800Y0081800D02*
X0519800Y0081800D01*
X0536800Y0049800D02*
X0536800Y0043800D01*
X0546800Y0043800D02*
X0546800Y0049800D01*
X0556800Y0049800D02*
X0556800Y0043800D01*
X0566800Y0043800D02*
X0566800Y0049800D01*
X0583800Y0081800D02*
X0589800Y0081800D01*
X0589800Y0091800D02*
X0583800Y0091800D01*
X0583800Y0101800D02*
X0589800Y0101800D01*
X0589800Y0111800D02*
X0583800Y0111800D01*
X0583800Y0121800D02*
X0589800Y0121800D01*
X0589800Y0131800D02*
X0583800Y0131800D01*
X0583800Y0141800D02*
X0589800Y0141800D01*
X0589800Y0151800D02*
X0583800Y0151800D01*
X0583800Y0161800D02*
X0589800Y0161800D01*
X0566800Y0263800D02*
X0566800Y0269800D01*
X0556800Y0269800D02*
X0556800Y0263800D01*
X0546800Y0263800D02*
X0546800Y0269800D01*
X0536800Y0269800D02*
X0536800Y0263800D01*
X0519800Y0301800D02*
X0513800Y0301800D01*
X0513800Y0311800D02*
X0519800Y0311800D01*
X0519800Y0321800D02*
X0513800Y0321800D01*
X0513800Y0331800D02*
X0519800Y0331800D01*
X0519800Y0341800D02*
X0513800Y0341800D01*
X0513800Y0351800D02*
X0519800Y0351800D01*
X0519800Y0361800D02*
X0513800Y0361800D01*
X0513800Y0371800D02*
X0519800Y0371800D01*
X0519800Y0381800D02*
X0513800Y0381800D01*
X0469800Y0381800D02*
X0463800Y0381800D01*
X0463800Y0371800D02*
X0469800Y0371800D01*
X0469800Y0361800D02*
X0463800Y0361800D01*
X0463800Y0351800D02*
X0469800Y0351800D01*
X0469800Y0341800D02*
X0463800Y0341800D01*
X0463800Y0331800D02*
X0469800Y0331800D01*
X0469800Y0321800D02*
X0463800Y0321800D01*
X0463800Y0311800D02*
X0469800Y0311800D01*
X0469800Y0301800D02*
X0463800Y0301800D01*
X0446800Y0269800D02*
X0446800Y0263800D01*
X0436800Y0263800D02*
X0436800Y0269800D01*
X0426800Y0269800D02*
X0426800Y0263800D01*
X0416800Y0263800D02*
X0416800Y0269800D01*
X0399800Y0301800D02*
X0393800Y0301800D01*
X0393800Y0311800D02*
X0399800Y0311800D01*
X0399800Y0321800D02*
X0393800Y0321800D01*
X0393800Y0331800D02*
X0399800Y0331800D01*
X0399800Y0341800D02*
X0393800Y0341800D01*
X0393800Y0351800D02*
X0399800Y0351800D01*
X0399800Y0361800D02*
X0393800Y0361800D01*
X0393800Y0371800D02*
X0399800Y0371800D01*
X0399800Y0381800D02*
X0393800Y0381800D01*
X0349800Y0381800D02*
X0343800Y0381800D01*
X0343800Y0371800D02*
X0349800Y0371800D01*
X0349800Y0361800D02*
X0343800Y0361800D01*
X0343800Y0351800D02*
X0349800Y0351800D01*
X0349800Y0341800D02*
X0343800Y0341800D01*
X0343800Y0331800D02*
X0349800Y0331800D01*
X0349800Y0321800D02*
X0343800Y0321800D01*
X0343800Y0311800D02*
X0349800Y0311800D01*
X0349800Y0301800D02*
X0343800Y0301800D01*
X0326800Y0269800D02*
X0326800Y0263800D01*
X0316800Y0263800D02*
X0316800Y0269800D01*
X0306800Y0269800D02*
X0306800Y0263800D01*
X0296800Y0263800D02*
X0296800Y0269800D01*
X0279800Y0301800D02*
X0273800Y0301800D01*
X0273800Y0311800D02*
X0279800Y0311800D01*
X0279800Y0321800D02*
X0273800Y0321800D01*
X0273800Y0331800D02*
X0279800Y0331800D01*
X0279800Y0341800D02*
X0273800Y0341800D01*
X0273800Y0351800D02*
X0279800Y0351800D01*
X0279800Y0361800D02*
X0273800Y0361800D01*
X0273800Y0371800D02*
X0279800Y0371800D01*
X0279800Y0381800D02*
X0273800Y0381800D01*
X0229800Y0381800D02*
X0223800Y0381800D01*
X0223800Y0371800D02*
X0229800Y0371800D01*
X0229800Y0361800D02*
X0223800Y0361800D01*
X0223800Y0351800D02*
X0229800Y0351800D01*
X0229800Y0341800D02*
X0223800Y0341800D01*
X0223800Y0331800D02*
X0229800Y0331800D01*
X0229800Y0321800D02*
X0223800Y0321800D01*
X0223800Y0311800D02*
X0229800Y0311800D01*
X0229800Y0301800D02*
X0223800Y0301800D01*
X0206800Y0269800D02*
X0206800Y0263800D01*
X0196800Y0263800D02*
X0196800Y0269800D01*
X0186800Y0269800D02*
X0186800Y0263800D01*
X0176800Y0263800D02*
X0176800Y0269800D01*
X0159800Y0301800D02*
X0153800Y0301800D01*
X0153800Y0311800D02*
X0159800Y0311800D01*
X0159800Y0321800D02*
X0153800Y0321800D01*
X0153800Y0331800D02*
X0159800Y0331800D01*
X0159800Y0341800D02*
X0153800Y0341800D01*
X0153800Y0351800D02*
X0159800Y0351800D01*
X0159800Y0361800D02*
X0153800Y0361800D01*
X0153800Y0371800D02*
X0159800Y0371800D01*
X0159800Y0381800D02*
X0153800Y0381800D01*
X0109800Y0381800D02*
X0103800Y0381800D01*
X0103800Y0371800D02*
X0109800Y0371800D01*
X0109800Y0361800D02*
X0103800Y0361800D01*
X0103800Y0351800D02*
X0109800Y0351800D01*
X0109800Y0341800D02*
X0103800Y0341800D01*
X0103800Y0331800D02*
X0109800Y0331800D01*
X0109800Y0321800D02*
X0103800Y0321800D01*
X0103800Y0311800D02*
X0109800Y0311800D01*
X0109800Y0301800D02*
X0103800Y0301800D01*
X0086800Y0269800D02*
X0086800Y0263800D01*
X0076800Y0263800D02*
X0076800Y0269800D01*
X0066800Y0269800D02*
X0066800Y0263800D01*
X0056800Y0263800D02*
X0056800Y0269800D01*
X0039800Y0301800D02*
X0033800Y0301800D01*
X0033800Y0311800D02*
X0039800Y0311800D01*
X0039800Y0321800D02*
X0033800Y0321800D01*
X0033800Y0331800D02*
X0039800Y0331800D01*
X0039800Y0341800D02*
X0033800Y0341800D01*
X0033800Y0351800D02*
X0039800Y0351800D01*
X0039800Y0361800D02*
X0033800Y0361800D01*
X0033800Y0371800D02*
X0039800Y0371800D01*
X0039800Y0381800D02*
X0033800Y0381800D01*
X0033800Y0161800D02*
X0039800Y0161800D01*
X0039800Y0151800D02*
X0033800Y0151800D01*
X0033800Y0141800D02*
X0039800Y0141800D01*
X0039800Y0131800D02*
X0033800Y0131800D01*
X0033800Y0121800D02*
X0039800Y0121800D01*
X0039800Y0111800D02*
X0033800Y0111800D01*
X0033800Y0101800D02*
X0039800Y0101800D01*
X0039800Y0091800D02*
X0033800Y0091800D01*
X0033800Y0081800D02*
X0039800Y0081800D01*
X0583800Y0301800D02*
X0589800Y0301800D01*
X0589800Y0311800D02*
X0583800Y0311800D01*
X0583800Y0321800D02*
X0589800Y0321800D01*
X0589800Y0331800D02*
X0583800Y0331800D01*
X0583800Y0341800D02*
X0589800Y0341800D01*
X0589800Y0351800D02*
X0583800Y0351800D01*
X0583800Y0361800D02*
X0589800Y0361800D01*
X0589800Y0371800D02*
X0583800Y0371800D01*
X0583800Y0381800D02*
X0589800Y0381800D01*
D13*
X0536800Y0361800D03*
X0416800Y0361800D03*
X0296800Y0361800D03*
X0176800Y0361800D03*
X0056800Y0361800D03*
X0056800Y0141800D03*
X0176800Y0141800D03*
X0296800Y0141800D03*
X0416800Y0141800D03*
X0536800Y0141800D03*
D14*
X0536800Y0131800D03*
X0536800Y0121800D03*
X0536800Y0111800D03*
X0536800Y0101800D03*
X0536800Y0091800D03*
X0536800Y0081800D03*
X0566800Y0081800D03*
X0566800Y0091800D03*
X0566800Y0101800D03*
X0566800Y0111800D03*
X0566800Y0121800D03*
X0566800Y0131800D03*
X0566800Y0141800D03*
X0446800Y0141800D03*
X0446800Y0131800D03*
X0446800Y0121800D03*
X0446800Y0111800D03*
X0446800Y0101800D03*
X0446800Y0091800D03*
X0446800Y0081800D03*
X0416800Y0081800D03*
X0416800Y0091800D03*
X0416800Y0101800D03*
X0416800Y0111800D03*
X0416800Y0121800D03*
X0416800Y0131800D03*
X0326800Y0131800D03*
X0326800Y0121800D03*
X0326800Y0111800D03*
X0326800Y0101800D03*
X0326800Y0091800D03*
X0326800Y0081800D03*
X0296800Y0081800D03*
X0296800Y0091800D03*
X0296800Y0101800D03*
X0296800Y0111800D03*
X0296800Y0121800D03*
X0296800Y0131800D03*
X0326800Y0141800D03*
X0206800Y0141800D03*
X0206800Y0131800D03*
X0206800Y0121800D03*
X0206800Y0111800D03*
X0206800Y0101800D03*
X0206800Y0091800D03*
X0206800Y0081800D03*
X0176800Y0081800D03*
X0176800Y0091800D03*
X0176800Y0101800D03*
X0176800Y0111800D03*
X0176800Y0121800D03*
X0176800Y0131800D03*
X0086800Y0131800D03*
X0086800Y0121800D03*
X0086800Y0111800D03*
X0086800Y0101800D03*
X0086800Y0091800D03*
X0086800Y0081800D03*
X0056800Y0081800D03*
X0056800Y0091800D03*
X0056800Y0101800D03*
X0056800Y0111800D03*
X0056800Y0121800D03*
X0056800Y0131800D03*
X0086800Y0141800D03*
X0086800Y0301800D03*
X0086800Y0311800D03*
X0086800Y0321800D03*
X0086800Y0331800D03*
X0086800Y0341800D03*
X0086800Y0351800D03*
X0086800Y0361800D03*
X0056800Y0351800D03*
X0056800Y0341800D03*
X0056800Y0331800D03*
X0056800Y0321800D03*
X0056800Y0311800D03*
X0056800Y0301800D03*
X0176800Y0301800D03*
X0176800Y0311800D03*
X0176800Y0321800D03*
X0176800Y0331800D03*
X0176800Y0341800D03*
X0176800Y0351800D03*
X0206800Y0351800D03*
X0206800Y0341800D03*
X0206800Y0331800D03*
X0206800Y0321800D03*
X0206800Y0311800D03*
X0206800Y0301800D03*
X0206800Y0361800D03*
X0296800Y0351800D03*
X0296800Y0341800D03*
X0296800Y0331800D03*
X0296800Y0321800D03*
X0296800Y0311800D03*
X0296800Y0301800D03*
X0326800Y0301800D03*
X0326800Y0311800D03*
X0326800Y0321800D03*
X0326800Y0331800D03*
X0326800Y0341800D03*
X0326800Y0351800D03*
X0326800Y0361800D03*
X0416800Y0351800D03*
X0416800Y0341800D03*
X0416800Y0331800D03*
X0416800Y0321800D03*
X0416800Y0311800D03*
X0416800Y0301800D03*
X0446800Y0301800D03*
X0446800Y0311800D03*
X0446800Y0321800D03*
X0446800Y0331800D03*
X0446800Y0341800D03*
X0446800Y0351800D03*
X0446800Y0361800D03*
X0536800Y0351800D03*
X0536800Y0341800D03*
X0536800Y0331800D03*
X0536800Y0321800D03*
X0536800Y0311800D03*
X0536800Y0301800D03*
X0566800Y0301800D03*
X0566800Y0311800D03*
X0566800Y0321800D03*
X0566800Y0331800D03*
X0566800Y0341800D03*
X0566800Y0351800D03*
X0566800Y0361800D03*
D15*
X0556800Y0356800D02*
X0556800Y0386800D01*
X0561800Y0391800D01*
X0561800Y0411800D01*
X0541800Y0411800D02*
X0541800Y0391800D01*
X0546800Y0386800D01*
X0546800Y0356800D01*
X0541800Y0351800D01*
X0536800Y0351800D01*
X0516800Y0351800D01*
X0516800Y0341800D02*
X0536800Y0341800D01*
X0541800Y0341800D01*
X0556800Y0356800D01*
X0566800Y0351800D02*
X0586800Y0351800D01*
X0586800Y0341800D02*
X0566800Y0341800D01*
X0566800Y0331800D02*
X0586800Y0331800D01*
X0586800Y0321800D02*
X0566800Y0321800D01*
X0566800Y0311800D02*
X0586800Y0311800D01*
X0586800Y0301800D02*
X0566800Y0301800D01*
X0561800Y0301800D01*
X0556800Y0296800D01*
X0556800Y0266800D01*
X0546800Y0266800D02*
X0546800Y0296800D01*
X0541800Y0301800D01*
X0536800Y0301800D01*
X0516800Y0301800D01*
X0516800Y0311800D02*
X0536800Y0311800D01*
X0536800Y0321800D02*
X0516800Y0321800D01*
X0516800Y0331800D02*
X0536800Y0331800D01*
X0536800Y0361800D02*
X0516800Y0361800D01*
X0516800Y0371800D01*
X0516800Y0381800D01*
X0466800Y0351800D02*
X0446800Y0351800D01*
X0446800Y0341800D02*
X0466800Y0341800D01*
X0466800Y0331800D02*
X0446800Y0331800D01*
X0446800Y0321800D02*
X0466800Y0321800D01*
X0466800Y0311800D02*
X0446800Y0311800D01*
X0446800Y0301800D02*
X0441800Y0301800D01*
X0436800Y0296800D01*
X0436800Y0266800D01*
X0426800Y0266800D02*
X0426800Y0296800D01*
X0421800Y0301800D01*
X0416800Y0301800D01*
X0396800Y0301800D01*
X0396800Y0311800D02*
X0416800Y0311800D01*
X0416800Y0321800D02*
X0396800Y0321800D01*
X0396800Y0331800D02*
X0416800Y0331800D01*
X0416800Y0341800D02*
X0396800Y0341800D01*
X0396800Y0351800D02*
X0416800Y0351800D01*
X0421800Y0351800D01*
X0426800Y0356800D01*
X0426800Y0386800D01*
X0421800Y0391800D01*
X0421800Y0411800D01*
X0441800Y0411800D02*
X0441800Y0391800D01*
X0436800Y0386800D01*
X0436800Y0356800D01*
X0421800Y0341800D01*
X0416800Y0341800D01*
X0416800Y0361800D02*
X0396800Y0361800D01*
X0396800Y0371800D01*
X0396800Y0381800D01*
X0346800Y0351800D02*
X0326800Y0351800D01*
X0316800Y0356800D02*
X0316800Y0386800D01*
X0321800Y0391800D01*
X0321800Y0411800D01*
X0301800Y0411800D02*
X0301800Y0391800D01*
X0306800Y0386800D01*
X0306800Y0356800D01*
X0301800Y0351800D01*
X0296800Y0351800D01*
X0276800Y0351800D01*
X0276800Y0341800D02*
X0296800Y0341800D01*
X0301800Y0341800D01*
X0316800Y0356800D01*
X0326800Y0341800D02*
X0346800Y0341800D01*
X0346800Y0331800D02*
X0326800Y0331800D01*
X0326800Y0321800D02*
X0346800Y0321800D01*
X0346800Y0311800D02*
X0326800Y0311800D01*
X0326800Y0301800D02*
X0321800Y0301800D01*
X0316800Y0296800D01*
X0316800Y0266800D01*
X0306800Y0266800D02*
X0306800Y0296800D01*
X0301800Y0301800D01*
X0296800Y0301800D01*
X0276800Y0301800D01*
X0276800Y0311800D02*
X0296800Y0311800D01*
X0296800Y0321800D02*
X0276800Y0321800D01*
X0276800Y0331800D02*
X0296800Y0331800D01*
X0296800Y0361800D02*
X0276800Y0361800D01*
X0276800Y0371800D01*
X0276800Y0381800D01*
X0226800Y0351800D02*
X0206800Y0351800D01*
X0206800Y0341800D02*
X0226800Y0341800D01*
X0226800Y0331800D02*
X0206800Y0331800D01*
X0206800Y0321800D02*
X0226800Y0321800D01*
X0226800Y0311800D02*
X0206800Y0311800D01*
X0206800Y0301800D02*
X0201800Y0301800D01*
X0196800Y0296800D01*
X0196800Y0266800D01*
X0186800Y0266800D02*
X0186800Y0296800D01*
X0181800Y0301800D01*
X0176800Y0301800D01*
X0156800Y0301800D01*
X0156800Y0311800D02*
X0176800Y0311800D01*
X0176800Y0321800D02*
X0156800Y0321800D01*
X0156800Y0331800D02*
X0176800Y0331800D01*
X0176800Y0341800D02*
X0156800Y0341800D01*
X0156800Y0351800D02*
X0176800Y0351800D01*
X0181800Y0351800D01*
X0186800Y0356800D01*
X0186800Y0386800D01*
X0181800Y0391800D01*
X0181800Y0411800D01*
X0201800Y0411800D02*
X0201800Y0391800D01*
X0196800Y0386800D01*
X0196800Y0356800D01*
X0181800Y0341800D01*
X0176800Y0341800D01*
X0176800Y0361800D02*
X0156800Y0361800D01*
X0156800Y0371800D01*
X0156800Y0381800D01*
X0106800Y0351800D02*
X0086800Y0351800D01*
X0086800Y0341800D02*
X0106800Y0341800D01*
X0106800Y0331800D02*
X0086800Y0331800D01*
X0086800Y0321800D02*
X0106800Y0321800D01*
X0106800Y0311800D02*
X0086800Y0311800D01*
X0086800Y0301800D02*
X0081800Y0301800D01*
X0076800Y0296800D01*
X0076800Y0266800D01*
X0066800Y0266800D02*
X0066800Y0296800D01*
X0061800Y0301800D01*
X0056800Y0301800D01*
X0036800Y0301800D01*
X0036800Y0311800D02*
X0056800Y0311800D01*
X0056800Y0321800D02*
X0036800Y0321800D01*
X0036800Y0331800D02*
X0056800Y0331800D01*
X0056800Y0341800D02*
X0036800Y0341800D01*
X0036800Y0351800D02*
X0056800Y0351800D01*
X0061800Y0351800D01*
X0066800Y0356800D01*
X0066800Y0386800D01*
X0061800Y0391800D01*
X0061800Y0411800D01*
X0081800Y0411800D02*
X0081800Y0391800D01*
X0076800Y0386800D01*
X0076800Y0356800D01*
X0061800Y0341800D01*
X0056800Y0341800D01*
X0056800Y0361800D02*
X0036800Y0361800D01*
X0036800Y0371800D01*
X0036800Y0381800D01*
X0086800Y0301800D02*
X0106800Y0301800D01*
X0206800Y0301800D02*
X0226800Y0301800D01*
X0326800Y0301800D02*
X0346800Y0301800D01*
X0446800Y0301800D02*
X0466800Y0301800D01*
X0441800Y0191800D02*
X0441800Y0171800D01*
X0436800Y0166800D01*
X0436800Y0136800D01*
X0421800Y0121800D01*
X0416800Y0121800D01*
X0396800Y0121800D01*
X0396800Y0111800D02*
X0416800Y0111800D01*
X0416800Y0101800D02*
X0396800Y0101800D01*
X0396800Y0091800D02*
X0416800Y0091800D01*
X0416800Y0081800D02*
X0396800Y0081800D01*
X0416800Y0081800D02*
X0421800Y0081800D01*
X0426800Y0076800D01*
X0426800Y0046800D01*
X0436800Y0046800D02*
X0436800Y0076800D01*
X0441800Y0081800D01*
X0446800Y0081800D01*
X0466800Y0081800D01*
X0466800Y0091800D02*
X0446800Y0091800D01*
X0446800Y0101800D02*
X0466800Y0101800D01*
X0466800Y0111800D02*
X0446800Y0111800D01*
X0446800Y0121800D02*
X0466800Y0121800D01*
X0466800Y0131800D02*
X0446800Y0131800D01*
X0426800Y0136800D02*
X0421800Y0131800D01*
X0416800Y0131800D01*
X0396800Y0131800D01*
X0396800Y0141800D02*
X0396800Y0151800D01*
X0396800Y0161800D01*
X0421800Y0171800D02*
X0426800Y0166800D01*
X0426800Y0136800D01*
X0416800Y0141800D02*
X0396800Y0141800D01*
X0421800Y0171800D02*
X0421800Y0191800D01*
X0346800Y0131800D02*
X0326800Y0131800D01*
X0316800Y0136800D02*
X0316800Y0166800D01*
X0321800Y0171800D01*
X0321800Y0191800D01*
X0301800Y0191800D02*
X0301800Y0171800D01*
X0306800Y0166800D01*
X0306800Y0136800D01*
X0301800Y0131800D01*
X0296800Y0131800D01*
X0276800Y0131800D01*
X0276800Y0121800D02*
X0296800Y0121800D01*
X0301800Y0121800D01*
X0316800Y0136800D01*
X0326800Y0121800D02*
X0346800Y0121800D01*
X0346800Y0111800D02*
X0326800Y0111800D01*
X0326800Y0101800D02*
X0346800Y0101800D01*
X0346800Y0091800D02*
X0326800Y0091800D01*
X0326800Y0081800D02*
X0321800Y0081800D01*
X0316800Y0076800D01*
X0316800Y0046800D01*
X0306800Y0046800D02*
X0306800Y0076800D01*
X0301800Y0081800D01*
X0296800Y0081800D01*
X0276800Y0081800D01*
X0276800Y0091800D02*
X0296800Y0091800D01*
X0296800Y0101800D02*
X0276800Y0101800D01*
X0276800Y0111800D02*
X0296800Y0111800D01*
X0296800Y0141800D02*
X0276800Y0141800D01*
X0276800Y0151800D01*
X0276800Y0161800D01*
X0226800Y0131800D02*
X0206800Y0131800D01*
X0206800Y0121800D02*
X0226800Y0121800D01*
X0226800Y0111800D02*
X0206800Y0111800D01*
X0206800Y0101800D02*
X0226800Y0101800D01*
X0226800Y0091800D02*
X0206800Y0091800D01*
X0206800Y0081800D02*
X0201800Y0081800D01*
X0196800Y0076800D01*
X0196800Y0046800D01*
X0186800Y0046800D02*
X0186800Y0076800D01*
X0181800Y0081800D01*
X0176800Y0081800D01*
X0156800Y0081800D01*
X0156800Y0091800D02*
X0176800Y0091800D01*
X0176800Y0101800D02*
X0156800Y0101800D01*
X0156800Y0111800D02*
X0176800Y0111800D01*
X0176800Y0121800D02*
X0156800Y0121800D01*
X0156800Y0131800D02*
X0176800Y0131800D01*
X0181800Y0131800D01*
X0186800Y0136800D01*
X0186800Y0166800D01*
X0181800Y0171800D01*
X0181800Y0191800D01*
X0201800Y0191800D02*
X0201800Y0171800D01*
X0196800Y0166800D01*
X0196800Y0136800D01*
X0181800Y0121800D01*
X0176800Y0121800D01*
X0176800Y0141800D02*
X0156800Y0141800D01*
X0156800Y0151800D01*
X0156800Y0161800D01*
X0106800Y0131800D02*
X0086800Y0131800D01*
X0086800Y0121800D02*
X0106800Y0121800D01*
X0106800Y0111800D02*
X0086800Y0111800D01*
X0086800Y0101800D02*
X0106800Y0101800D01*
X0106800Y0091800D02*
X0086800Y0091800D01*
X0086800Y0081800D02*
X0081800Y0081800D01*
X0076800Y0076800D01*
X0076800Y0046800D01*
X0066800Y0046800D02*
X0066800Y0076800D01*
X0061800Y0081800D01*
X0056800Y0081800D01*
X0036800Y0081800D01*
X0036800Y0091800D02*
X0056800Y0091800D01*
X0056800Y0101800D02*
X0036800Y0101800D01*
X0036800Y0111800D02*
X0056800Y0111800D01*
X0056800Y0121800D02*
X0036800Y0121800D01*
X0036800Y0131800D02*
X0056800Y0131800D01*
X0061800Y0131800D01*
X0066800Y0136800D01*
X0066800Y0166800D01*
X0061800Y0171800D01*
X0061800Y0191800D01*
X0081800Y0191800D02*
X0081800Y0171800D01*
X0076800Y0166800D01*
X0076800Y0136800D01*
X0061800Y0121800D01*
X0056800Y0121800D01*
X0056800Y0141800D02*
X0036800Y0141800D01*
X0036800Y0151800D01*
X0036800Y0161800D01*
X0086800Y0081800D02*
X0106800Y0081800D01*
X0206800Y0081800D02*
X0226800Y0081800D01*
X0326800Y0081800D02*
X0346800Y0081800D01*
X0516800Y0081800D02*
X0536800Y0081800D01*
X0541800Y0081800D01*
X0546800Y0076800D01*
X0546800Y0046800D01*
X0556800Y0046800D02*
X0556800Y0076800D01*
X0561800Y0081800D01*
X0566800Y0081800D01*
X0586800Y0081800D01*
X0586800Y0091800D02*
X0566800Y0091800D01*
X0566800Y0101800D02*
X0586800Y0101800D01*
X0586800Y0111800D02*
X0566800Y0111800D01*
X0566800Y0121800D02*
X0586800Y0121800D01*
X0586800Y0131800D02*
X0566800Y0131800D01*
X0556800Y0136800D02*
X0556800Y0166800D01*
X0561800Y0171800D01*
X0561800Y0191800D01*
X0541800Y0191800D02*
X0541800Y0171800D01*
X0546800Y0166800D01*
X0546800Y0136800D01*
X0541800Y0131800D01*
X0536800Y0131800D01*
X0516800Y0131800D01*
X0516800Y0121800D02*
X0536800Y0121800D01*
X0541800Y0121800D01*
X0556800Y0136800D01*
X0536800Y0141800D02*
X0516800Y0141800D01*
X0516800Y0151800D01*
X0516800Y0161800D01*
X0516800Y0111800D02*
X0536800Y0111800D01*
X0536800Y0101800D02*
X0516800Y0101800D01*
X0516800Y0091800D02*
X0536800Y0091800D01*
M02*
